<?xml version="1.0" standalone="no"?>
<!DOCTYPE svg PUBLIC "-//W3C//DTD SVG 20010904//EN"
 "http://www.w3.org/TR/2001/REC-SVG-20010904/DTD/svg10.dtd">
<svg version="1.0" xmlns="http://www.w3.org/2000/svg"
 width="586.000000pt" height="383.000000pt" viewBox="0 0 586.000000 383.000000"
 preserveAspectRatio="xMidYMid meet">

<g transform="translate(0.000000,383.000000) scale(0.100000,-0.100000)"
fill="#000000" stroke="none">
<path d="M960 1666 l0 -416 405 0 405 0 0 415 c0 228 -2 415 -5 415 -3 0 -94
-67 -202 -150 -117 -88 -201 -146 -208 -141 -55 42 -373 279 -382 285 -10 6
-13 -79 -13 -408z"/>
<path d="M1990 1656 l0 -406 195 0 195 0 0 75 c0 73 0 75 28 80 61 13 107 28
131 43 49 30 103 87 129 137 24 44 27 61 27 145 0 83 -3 101 -27 145 -32 62
-103 129 -166 158 -43 20 -66 22 -279 25 l-233 4 0 -406z"/>
<path d="M2900 1655 l0 -407 253 4 252 3 67 32 c325 154 310 611 -24 746 -48
19 -76 22 -300 25 l-248 4 0 -407z"/>
<path d="M3917 2053 c-4 -3 -7 -186 -7 -405 l0 -398 245 0 245 0 0 120 0 120
90 0 90 0 0 130 0 130 -80 0 c-73 0 -80 2 -80 20 0 18 7 20 80 20 l80 0 0 135
0 135 -328 0 c-181 0 -332 -3 -335 -7z"/>
</g>
</svg>
